# xmcd
#
# Track frame offsets:
#	150
#	13792
#	29438
#	48512
#	64297
#	82395
#	97608
#	114462
#	130332
#	147467
#	163635
#	179702
#	190887
#	206196
#	219758
#	236994
#	251617
#	267378
#	283577
#	295595
#
# Disc length: 4139 seconds
#
# Revision: 3
# Processed by: cddbd v1.5.2PL0 Copyright (c) Steve Scherf et al.
# Submitted via: MusicWizard 7.0.2
#
DISCID=3a102914
DTITLE=Various Artist - Western Mail (Country Hits 2006)
DYEAR=2006
DGENRE=Country
TTITLE0=Texas Lightning - No No Never
TTITLE1=Frankie Raydell - Niemand Liebt Dich Immer Noch
TTITLE2=The Mountaineers - Wish She Were Here
TTITLE3=Lucky Sale - The Memory Of Him
TTITLE4=Larry Schuba and Western Union - Johnny Ist Gegangen
TTITLE5=The Lennerockers - I've Got You On My Mind Again
TTITLE6=Truck Stop - Susanna
TTITLE7=Daniel T. Coates - House On The Highway
TTITLE8=Bluegrass Breakdown - Losing Sleep
TTITLE9=Amarillo - Wings On My Dreams
TTITLE10=Tom Astor - Zwischen Himmel Und Erde
TTITLE11=Mandy Strobel - Yes My Honey Whatever You Say
TTITLE12=Gitty Fisher - Can't Stay Anymore
TTITLE13=Manuel - Sie Steht Auf Country Songs
TTITLE14=Russell Burke - Grandpa's House
TTITLE15=Hermann Lammers Meyer - Southern Comfort
TTITLE16=Katie Grant - Ich Wusste Nicht (Das Ich So Stark Sein Kann)
TTITLE17=Frank Lange - Weekend Jamboree
TTITLE18=Ulli Möhring - Publikum
TTITLE19=Slow Horses - Better Things To Do
EXTD=YEAR: 2006
EXTT0=
EXTT1=
EXTT2=
EXTT3=
EXTT4=
EXTT5=
EXTT6=
EXTT7=
EXTT8=
EXTT9=
EXTT10=
EXTT11=
EXTT12=
EXTT13=
EXTT14=
EXTT15=
EXTT16=
EXTT17=
EXTT18=
EXTT19=
PLAYORDER=
